<mxfile host="app.diagrams.net" modified="2023-04-04T12:17:49.199Z" agent="Mozilla/5.0 (Windows NT 10.0; Win64; x64) AppleWebKit/537.36 (KHTML, like Gecko) Chrome/111.0.0.0 Safari/537.36" etag="YD4EFzJtbWsf5fMIY3nq" version="21.1.2" type="device">
  <diagram name="Seite-1" id="pOqvI1cBqr-qqXXVeGFv">
    <mxGraphModel dx="1434" dy="834" grid="1" gridSize="10" guides="1" tooltips="1" connect="1" arrows="1" fold="1" page="1" pageScale="1" pageWidth="827" pageHeight="1169" math="0" shadow="0">
      <root>
        <mxCell id="0" />
        <mxCell id="1" parent="0" />
        <mxCell id="zaIucY2yGyk8i7d1ZHmE-216" value="&lt;font style=&quot;font-size: 24px;&quot;&gt;Sportart&lt;/font&gt;" style="whiteSpace=wrap;html=1;" parent="1" vertex="1">
          <mxGeometry x="350" y="70" width="120" height="60" as="geometry" />
        </mxCell>
        <mxCell id="zaIucY2yGyk8i7d1ZHmE-217" value="N" style="text;html=1;align=center;verticalAlign=middle;resizable=0;points=[];autosize=1;strokeColor=none;fillColor=none;" parent="1" vertex="1">
          <mxGeometry x="160" y="460" width="30" height="30" as="geometry" />
        </mxCell>
        <mxCell id="zaIucY2yGyk8i7d1ZHmE-218" value="N" style="text;html=1;align=center;verticalAlign=middle;resizable=0;points=[];autosize=1;strokeColor=none;fillColor=none;" parent="1" vertex="1">
          <mxGeometry x="160" y="320" width="30" height="30" as="geometry" />
        </mxCell>
        <mxCell id="zaIucY2yGyk8i7d1ZHmE-219" value="N" style="text;html=1;align=center;verticalAlign=middle;resizable=0;points=[];autosize=1;strokeColor=none;fillColor=none;" parent="1" vertex="1">
          <mxGeometry x="320" y="210" width="30" height="30" as="geometry" />
        </mxCell>
        <mxCell id="zaIucY2yGyk8i7d1ZHmE-220" value="N" style="text;html=1;align=center;verticalAlign=middle;resizable=0;points=[];autosize=1;strokeColor=none;fillColor=none;" parent="1" vertex="1">
          <mxGeometry x="410" y="180" width="30" height="30" as="geometry" />
        </mxCell>
        <mxCell id="zaIucY2yGyk8i7d1ZHmE-221" value="N" style="text;html=1;align=center;verticalAlign=middle;resizable=0;points=[];autosize=1;strokeColor=none;fillColor=none;" parent="1" vertex="1">
          <mxGeometry x="550" y="210" width="30" height="30" as="geometry" />
        </mxCell>
        <mxCell id="zaIucY2yGyk8i7d1ZHmE-222" value="N" style="text;html=1;align=center;verticalAlign=middle;resizable=0;points=[];autosize=1;strokeColor=none;fillColor=none;" parent="1" vertex="1">
          <mxGeometry x="320" y="490" width="30" height="30" as="geometry" />
        </mxCell>
        <mxCell id="zaIucY2yGyk8i7d1ZHmE-223" value="N" style="text;html=1;align=center;verticalAlign=middle;resizable=0;points=[];autosize=1;strokeColor=none;fillColor=none;" parent="1" vertex="1">
          <mxGeometry x="410" y="460" width="30" height="30" as="geometry" />
        </mxCell>
        <mxCell id="zaIucY2yGyk8i7d1ZHmE-224" value="1" style="text;html=1;align=center;verticalAlign=middle;resizable=0;points=[];autosize=1;strokeColor=none;fillColor=none;" parent="1" vertex="1">
          <mxGeometry x="410" y="130" width="30" height="30" as="geometry" />
        </mxCell>
        <mxCell id="zaIucY2yGyk8i7d1ZHmE-225" value="1" style="text;html=1;align=center;verticalAlign=middle;resizable=0;points=[];autosize=1;strokeColor=none;fillColor=none;" parent="1" vertex="1">
          <mxGeometry x="470" y="210" width="30" height="30" as="geometry" />
        </mxCell>
        <mxCell id="zaIucY2yGyk8i7d1ZHmE-226" value="1" style="text;html=1;align=center;verticalAlign=middle;resizable=0;points=[];autosize=1;strokeColor=none;fillColor=none;" parent="1" vertex="1">
          <mxGeometry x="410" y="270" width="30" height="30" as="geometry" />
        </mxCell>
        <mxCell id="zaIucY2yGyk8i7d1ZHmE-227" value="1" style="text;html=1;align=center;verticalAlign=middle;resizable=0;points=[];autosize=1;strokeColor=none;fillColor=none;" parent="1" vertex="1">
          <mxGeometry x="220" y="210" width="30" height="30" as="geometry" />
        </mxCell>
        <mxCell id="zaIucY2yGyk8i7d1ZHmE-228" value="1" style="text;html=1;align=center;verticalAlign=middle;resizable=0;points=[];autosize=1;strokeColor=none;fillColor=none;" parent="1" vertex="1">
          <mxGeometry x="160" y="270" width="30" height="30" as="geometry" />
        </mxCell>
        <mxCell id="zaIucY2yGyk8i7d1ZHmE-229" value="1" style="text;html=1;align=center;verticalAlign=middle;resizable=0;points=[];autosize=1;strokeColor=none;fillColor=none;" parent="1" vertex="1">
          <mxGeometry x="160" y="410" width="30" height="30" as="geometry" />
        </mxCell>
        <mxCell id="zaIucY2yGyk8i7d1ZHmE-230" value="1" style="text;html=1;align=center;verticalAlign=middle;resizable=0;points=[];autosize=1;strokeColor=none;fillColor=none;" parent="1" vertex="1">
          <mxGeometry x="220" y="490" width="30" height="30" as="geometry" />
        </mxCell>
        <mxCell id="zaIucY2yGyk8i7d1ZHmE-232" value="&lt;font style=&quot;font-size: 24px;&quot;&gt;Challenge Sportart&lt;/font&gt;" style="whiteSpace=wrap;html=1;" parent="1" vertex="1">
          <mxGeometry x="350" y="210" width="120" height="60" as="geometry" />
        </mxCell>
        <mxCell id="zaIucY2yGyk8i7d1ZHmE-233" value="&lt;font style=&quot;font-size: 24px;&quot;&gt;Teams&lt;/font&gt;" style="whiteSpace=wrap;html=1;" parent="1" vertex="1">
          <mxGeometry x="100" y="350" width="120" height="60" as="geometry" />
        </mxCell>
        <mxCell id="zaIucY2yGyk8i7d1ZHmE-234" value="&lt;font style=&quot;font-size: 24px;&quot;&gt;Boni&lt;/font&gt;" style="whiteSpace=wrap;html=1;" parent="1" vertex="1">
          <mxGeometry x="575" y="210" width="120" height="60" as="geometry" />
        </mxCell>
        <mxCell id="zaIucY2yGyk8i7d1ZHmE-235" value="&lt;font style=&quot;font-size: 24px;&quot;&gt;Challenge&lt;/font&gt;" style="whiteSpace=wrap;html=1;" parent="1" vertex="1">
          <mxGeometry x="100" y="210" width="120" height="60" as="geometry" />
        </mxCell>
        <mxCell id="zaIucY2yGyk8i7d1ZHmE-236" value="&lt;font style=&quot;font-size: 24px;&quot;&gt;AktivitÃ¤t&lt;/font&gt;" style="whiteSpace=wrap;html=1;" parent="1" vertex="1">
          <mxGeometry x="350" y="490" width="120" height="60" as="geometry" />
        </mxCell>
        <mxCell id="zaIucY2yGyk8i7d1ZHmE-237" value="&lt;font style=&quot;font-size: 24px;&quot;&gt;Teilnehmer&lt;/font&gt;" style="whiteSpace=wrap;html=1;" parent="1" vertex="1">
          <mxGeometry x="100" y="490" width="120" height="60" as="geometry" />
        </mxCell>
        <mxCell id="zaIucY2yGyk8i7d1ZHmE-239" value="" style="endArrow=none;html=1;rounded=0;exitX=0.5;exitY=0;exitDx=0;exitDy=0;" parent="1" source="zaIucY2yGyk8i7d1ZHmE-236" edge="1">
          <mxGeometry width="50" height="50" relative="1" as="geometry">
            <mxPoint x="360" y="320" as="sourcePoint" />
            <mxPoint x="410" y="270" as="targetPoint" />
          </mxGeometry>
        </mxCell>
        <mxCell id="zaIucY2yGyk8i7d1ZHmE-240" value="" style="endArrow=none;html=1;rounded=0;entryX=0;entryY=0.5;entryDx=0;entryDy=0;" parent="1" target="zaIucY2yGyk8i7d1ZHmE-236" edge="1">
          <mxGeometry width="50" height="50" relative="1" as="geometry">
            <mxPoint x="220" y="520" as="sourcePoint" />
            <mxPoint x="270" y="470" as="targetPoint" />
          </mxGeometry>
        </mxCell>
        <mxCell id="zaIucY2yGyk8i7d1ZHmE-241" value="" style="endArrow=none;html=1;rounded=0;exitX=0.5;exitY=0;exitDx=0;exitDy=0;" parent="1" source="zaIucY2yGyk8i7d1ZHmE-237" edge="1">
          <mxGeometry width="50" height="50" relative="1" as="geometry">
            <mxPoint x="110" y="460" as="sourcePoint" />
            <mxPoint x="160" y="410" as="targetPoint" />
          </mxGeometry>
        </mxCell>
        <mxCell id="zaIucY2yGyk8i7d1ZHmE-242" value="" style="endArrow=none;html=1;rounded=0;exitX=0.5;exitY=0;exitDx=0;exitDy=0;" parent="1" source="zaIucY2yGyk8i7d1ZHmE-233" edge="1">
          <mxGeometry width="50" height="50" relative="1" as="geometry">
            <mxPoint x="110" y="320" as="sourcePoint" />
            <mxPoint x="160" y="270" as="targetPoint" />
          </mxGeometry>
        </mxCell>
        <mxCell id="zaIucY2yGyk8i7d1ZHmE-243" value="" style="endArrow=none;html=1;rounded=0;entryX=0;entryY=0.5;entryDx=0;entryDy=0;" parent="1" target="zaIucY2yGyk8i7d1ZHmE-234" edge="1">
          <mxGeometry width="50" height="50" relative="1" as="geometry">
            <mxPoint x="470" y="240" as="sourcePoint" />
            <mxPoint x="520" y="190" as="targetPoint" />
          </mxGeometry>
        </mxCell>
        <mxCell id="zaIucY2yGyk8i7d1ZHmE-244" value="" style="endArrow=none;html=1;rounded=0;entryX=0;entryY=0.5;entryDx=0;entryDy=0;" parent="1" target="zaIucY2yGyk8i7d1ZHmE-232" edge="1">
          <mxGeometry width="50" height="50" relative="1" as="geometry">
            <mxPoint x="220" y="240" as="sourcePoint" />
            <mxPoint x="270" y="190" as="targetPoint" />
          </mxGeometry>
        </mxCell>
        <mxCell id="zaIucY2yGyk8i7d1ZHmE-245" value="" style="endArrow=none;html=1;rounded=0;exitX=0.5;exitY=0;exitDx=0;exitDy=0;entryX=0.5;entryY=1;entryDx=0;entryDy=0;" parent="1" source="zaIucY2yGyk8i7d1ZHmE-232" target="zaIucY2yGyk8i7d1ZHmE-216" edge="1">
          <mxGeometry width="50" height="50" relative="1" as="geometry">
            <mxPoint x="364" y="180" as="sourcePoint" />
            <mxPoint x="414" y="130" as="targetPoint" />
            <Array as="points">
              <mxPoint x="410" y="180" />
            </Array>
          </mxGeometry>
        </mxCell>
      </root>
    </mxGraphModel>
  </diagram>
</mxfile>
